<svg width="176" height="59" viewBox="0 0 176 59" fill="none" xmlns="http://www.w3.org/2000/svg">
<path d="M9.95155 17.2321L16.3382 13.5488L12.7733 7.3775H46.3006L29.5424 36.4137L25.9774 30.2316L19.5908 33.9258L29.5424 51.1581L59.0739 0H0L9.95155 17.2321Z" fill="black"/>
<path d="M82.016 39.3947C80.08 41.7267 77.132 42.9147 73.612 42.9147C66.66 42.9147 62.436 38.4267 62.436 31.9147C62.436 25.4467 66.704 20.9587 73.612 20.9587C76.956 20.9587 80.168 22.2347 82.104 24.5667L78.628 28.2187C77.22 26.6787 75.68 26.0627 73.612 26.0627C70.664 26.0627 68.112 28.4387 68.112 31.9147C68.112 35.6987 70.488 37.8107 73.612 37.8107C75.46 37.8107 77.572 37.1067 78.716 35.6547L82.016 39.3947Z" fill="black"/>
<path d="M108.821 21.4867L96.0169 51.8467H89.7249L93.8169 42.3867L84.9729 21.4867H91.2209L95.6209 32.6627L96.8969 36.6667L98.1289 32.6627L102.529 21.4867H108.821Z" fill="black"/>
<path d="M123.205 26.1507C120.037 26.1507 117.749 28.5707 117.749 31.8707C117.749 35.1267 120.037 37.5467 123.205 37.5467C126.285 37.5467 128.397 35.2587 128.397 31.8707C128.397 28.4387 126.285 26.1507 123.205 26.1507ZM112.249 42.1667V9.91467H117.837V21.3987L117.749 22.8947C118.673 21.6627 121.489 20.9587 123.425 20.9587C130.333 20.9587 134.205 26.0187 134.205 31.8707C134.205 38.4707 130.245 42.7387 123.425 42.7387C121.753 42.7387 119.069 41.9467 117.969 40.6267L118.013 41.8147V42.1667H112.249Z" fill="black"/>
<path d="M157.467 39.5267C155.839 41.6387 152.099 42.9147 148.887 42.9147C141.891 42.9147 137.975 38.1187 137.975 31.9147C137.975 25.5787 141.847 20.9587 148.667 20.9587C155.443 20.9587 159.315 25.5787 159.315 31.9147C159.315 32.6187 159.315 33.0587 159.271 33.6747H143.695C144.003 36.2707 145.939 37.8987 148.887 37.8987C150.999 37.8987 152.979 37.1947 154.211 35.8307L157.467 39.5267ZM143.783 29.8907H153.463C153.199 27.5587 151.263 25.9747 148.667 25.9747C146.071 25.9747 144.003 27.5587 143.783 29.8907Z" fill="black"/>
<path d="M174.726 26.6787C173.582 26.2827 172.57 26.1507 171.382 26.1507C170.59 26.1507 169.93 26.1947 169.314 26.4587V42.1667H163.638V22.4107C165.354 21.5307 168.302 20.9147 171.162 20.9147C172.394 20.9147 174.594 21.0467 175.914 21.5307L174.726 26.6787Z" fill="black"/>
</svg>
